<?xml version="1.0" encoding="utf-8" ?><svg xmlns="http://www.w3.org/2000/svg" xmlns:xlink="http://www.w3.org/1999/xlink" width="992" height="236" viewBox="0 0 992 236"><path fill="#008080" d="M801.87 59.8149C827.157 59.0715 852.997 70.355 854.644 98.7071C856.493 130.525 834.793 143.35 805.916 145.114C779.005 144.547 752.806 136.828 751.203 104.978C749.6 73.1157 773.254 60.9686 801.87 59.8149ZM807.091 130.133C814.071 129.468 818.594 128.833 824.745 125.334C840.099 116.6 841.139 92.623 827.767 81.7415C820.113 75.5121 808.822 73.7732 799.249 74.7371C799.006 74.7614 798.762 74.7893 798.519 74.8209C780.359 76.299 766.931 85.5732 768.606 105.538C770.286 125.566 789.801 131.423 807.091 130.133Z"/><path fill="#008080" d="M139.219 61.4185C157.32 62.3872 199.864 58.2153 214.069 65.2686C219.186 67.8093 223.272 72.0511 225.095 77.532C226.88 82.8976 227.103 90.3043 224.509 95.4014C221.633 101.051 217.628 104.253 211.609 106.218C210.21 106.645 209.192 106.702 208.284 107.638C209.395 108.241 210.306 108.222 211.549 108.315C229.213 112.397 223.909 126.018 224.54 140.132C224.587 141.19 224.492 142.354 224.468 143.425L207.467 143.501C205.659 116.334 214.522 113.227 180.901 113.325L156.343 113.304C156.495 123.29 156.411 133.436 156.42 143.435C150.68 143.437 144.94 143.471 139.2 143.536C139.683 136.709 139.249 122.948 139.245 115.565L139.219 61.4185ZM156.102 99.9462C165.173 99.7909 174.247 99.7705 183.32 99.885C189.887 99.9063 200.49 101.013 205.55 96.5114C212.519 88.733 208.91 76.8554 199.693 76.5499C186.547 76.114 169.39 75.4625 156.334 76.2301C156.386 84.3757 156.45 91.8056 156.102 99.9462Z"/><path fill="#008080" d="M418.53 61.5916C424.198 61.3687 429.754 61.4653 435.444 61.1594C436.29 87.0517 435.526 117.156 435.503 143.358C431.166 143.699 423.58 143.451 418.974 143.417C416.726 141.688 414.761 139.868 412.766 137.857C394.76 119.711 375.736 102.356 357.976 83.9953C357.615 103.022 357.747 124.401 358.098 143.436L341.029 143.522C340.399 124.423 341.246 104.954 340.932 85.8127C340.874 82.3223 340.501 63.295 341.77 61.2666C343.892 61.5762 354.497 61.4188 357.58 61.4464C359.703 62.8996 372.915 76.1626 375.453 78.703C389.638 92.8984 404.666 106.999 418.526 121.424C418.294 101.48 418.296 81.5349 418.53 61.5916Z"/><path fill="#008080" d="M243.886 61.5468C270.31 61.2261 297.323 62.0386 323.688 61.3663C323.696 66.0901 323.653 70.8872 323.881 75.6L260.725 75.6396C261.263 80.3244 260.828 90.7933 260.709 95.929C265.354 95.5763 273.262 95.862 278.279 95.8774C289.848 95.913 300.72 95.8855 312.287 95.3769C312.552 99.826 312.407 104.914 312.378 109.416C302.084 109.779 289.695 109.452 279.242 109.445L260.632 109.535C261.045 115.084 260.796 123.556 260.787 129.326C280.031 128.805 304.486 128.939 323.785 129.393C323.972 133.982 323.949 138.859 324.006 143.472L243.753 143.506C243.11 123.127 243.91 102.388 243.596 81.9716C243.493 75.3088 243.532 68.186 243.886 61.5468Z"/><path fill="#008080" d="M486.038 61.4857C492.021 61.3673 498.006 61.3571 503.989 61.4552C506.531 65.547 511.882 77.6905 514.139 82.4632L532.414 121.093C535.669 127.974 539.576 136.835 543.185 143.363C537.093 143.494 530.766 143.439 524.654 143.47C521.912 138.363 518.887 131.033 516.255 125.522C512.836 125.672 508.793 125.569 505.324 125.564L486.563 125.612C482.712 125.659 477.466 126.003 473.784 125.489L465.844 143.447L447.346 143.438C455.392 125.531 464.339 107.425 472.566 89.5287C475.585 82.9628 482.874 66.511 486.038 61.4857ZM480.067 111.425L495.531 111.395C500.341 111.418 505.43 111.355 510.215 111.502C508.067 107.339 496.166 80.4711 494.799 79.2545C490.408 89.207 484.982 101.853 480.067 111.425Z"/><path fill="#008080" d="M689.971 59.8211C711.87 59.1262 734.866 67.0606 738.011 91.5288C732.359 91.6207 726.705 91.6196 721.053 91.5252C717.602 82.0815 710.117 76.592 700.325 75.1885C682.195 72.9264 661.482 76.4905 657.203 97.1685C650.659 128.789 693.398 138.742 713.794 124.033C718.06 120.536 718.751 118.722 721.333 113.826C726.887 113.748 732.441 113.782 737.994 113.93C737.066 120.277 734.712 127.098 730.212 131.773C712.273 150.409 669.927 148.903 651.404 132.355C635.729 118.351 634.894 90.1535 649.193 74.9725C660.139 63.3513 674.772 60.4699 689.971 59.8211Z"/><path fill="#008080" d="M586.201 59.8156C598.307 59.6712 612.087 61.5432 619.935 71.8887C623.886 77.0979 624.522 82.0601 625.433 88.3318C619.866 88.3598 613.966 88.4924 608.43 88.2037C607.798 85.4144 607.318 82.8604 605.412 80.6145C601.833 76.396 596.612 74.7109 591.251 74.3046C585.21 73.8468 576.928 74.0957 572.145 78.2625C570.427 79.7588 569.237 81.7813 569.106 84.0883C568.312 98.0926 611.08 92.8777 623.66 107.347C627.02 111.212 628.302 118.064 627.897 123.058C627.439 128.711 624.668 133.736 620.356 137.38C611.527 144.841 597.137 145.903 586.149 144.955C567.745 144.084 551.667 134.933 549.017 115.595C554.429 115.719 560.664 115.505 566.135 115.437C567.32 119.325 568.515 121.473 571.516 124.388C578.731 131.397 601.776 133.728 608.603 125.921C620.657 112.384 592.968 109.677 583.769 108.485C564.026 105.925 541.379 92.9583 557.095 70.1305C562.253 62.6388 576.813 60.3962 586.201 59.8156Z"/><path fill="#008080" d="M280.162 163.415C289.199 163.642 313.446 160.179 317.634 170.18C321.103 178.465 317.721 182.766 310.174 186.175C311.164 186.349 312.775 186.634 313.657 187.05C318.677 189.419 319.825 199.119 317.775 203.638C315.644 205.035 313.533 204.396 310.962 203.95C309.743 197.755 313.391 189.977 305.326 188.909C299.257 188.106 293.453 188.921 287.387 188.673C287.333 191.664 287.471 194.389 287.688 197.369C288.218 204.661 285.787 204.629 280.075 204.24C279.7 194.088 279.445 173.177 280.162 163.415ZM287.402 182.648C292.832 182.689 305.882 183.667 309.702 180.946C318.601 166.517 294.713 170.214 287.393 170.06C287.407 173.903 287.576 178.9 287.402 182.648Z"/><path fill="#008080" d="M446.927 163.351C457.621 163.782 494.691 158.333 484.409 181.124C483.274 183.639 480.23 184.971 477.69 185.795C477.827 187.009 480.723 186.038 483.049 188.414C486.179 191.61 485.366 199.936 485.331 204.5C482.859 204.463 480.388 204.391 477.918 204.284C476.778 190.939 480.077 187.578 463.91 188.706C461.061 188.905 457.381 188.858 454.475 188.946L454.473 204.237C452.118 204.327 449.361 204.224 446.975 204.195L446.927 163.351ZM454.275 182.743C460.209 182.605 472.919 183.604 476.976 180.716C484.486 166.479 462.465 169.896 454.381 170.051C454.483 174.504 454.424 178.301 454.275 182.743Z"/><path fill="#008080" d="M575.823 163.388L582.961 163.387C589.031 174.631 594.95 191.901 601.181 204.097C598.436 204.155 596.084 204.319 593.354 204.547C591.977 201.743 590.397 197.671 589.146 194.712L582.637 194.693C578.203 194.755 573.769 194.849 569.336 194.974C568.059 197.753 566.721 201.285 565.538 204.165C563.184 204.387 560.329 204.145 557.934 204.018C560.028 198.188 572.799 167.414 575.823 163.388ZM572.449 188.53L581.371 188.479L586.67 188.544C585.469 186.068 580.026 172.569 579.013 171.829C577.572 175.465 573.24 185.443 572.449 188.53Z"/><path fill="#008080" d="M338.966 163.447L374.383 163.342L374.525 169.85C365.388 169.954 355.165 169.982 346.047 169.747C346.289 173.248 346.251 177.285 346.294 180.837C353.949 180.813 361.817 180.701 369.451 180.901C369.31 183.174 369.363 184.806 369.459 187.052L350.172 187.009C347.939 187.155 347.878 186.769 346.577 187.98C345.553 190.802 346.103 194.778 346.214 197.956C354.333 197.41 365.536 198.124 374.469 197.756C374.635 199.63 375.123 202.067 374.312 203.664C370.881 205.596 344.892 203.559 338.683 204.586C338.763 203.424 338.729 202.365 338.73 201.213C338.742 188.683 338.29 175.955 338.966 163.447Z"/><path fill="#008080" d="M506.282 163.261C516.255 164.062 530.9 163.284 541.607 163.564L541.571 169.83C532.175 169.699 522.778 169.699 513.381 169.83C513.453 173.494 513.421 177.16 513.285 180.822L536.203 180.853C536.457 182.875 536.718 184.145 536.3 186.137C534.739 187.54 519.547 187.021 516.223 187.06L514.379 187.09C512.603 188.661 513.481 194.362 512.975 197.983C517.967 198.106 537.924 197.195 541.128 198.394C541.993 199.596 542.18 202.658 541.339 203.883C538.05 204.86 510.046 204.438 505.715 204.004L505.678 179.258C505.676 174.919 505.538 167.37 506.282 163.261Z"/><path fill="#008080" d="M683.255 162.961C690.4 162.467 699.45 163.717 701.522 172.18C701.856 173.544 702.217 174.729 701.823 176.119C700.852 176.681 697.035 176.476 695.679 176.469C693.069 169.376 685.365 166.467 678.378 171.179C675.719 172.973 677.492 178.084 681.39 179.265C689.06 181.588 703.805 181.602 703.675 192.816C703.51 203.082 694.626 204.965 686.443 205.082C679.629 204.75 670.964 201.266 668.207 193.824C667.866 192.903 668.695 191.926 669.209 191.205C670.718 190.127 673.005 190.415 674.907 190.456C676.242 193.247 676.755 194.037 678.601 196.481C682.75 198.23 685.093 198.885 689.787 198.505C692.916 198.251 697.169 195.8 696.745 192.22C693.517 185.283 671.226 187.706 669.776 176.221C668.624 167.088 675.591 164.09 683.255 162.961Z"/><path fill="#008080" d="M614.841 163.34C626.948 163.943 640.102 162.804 652.266 163.662C652.995 163.714 653.108 164.105 653.58 164.669C653.778 166.223 654.027 167.425 653.683 168.963C652.262 170.345 640.357 170.024 637.746 170.04C637.994 176.32 637.937 182.924 637.965 189.236L637.933 204.322C635.317 204.168 633.321 204.365 630.733 204.576C630.196 194.312 630.603 180.584 630.61 170.028C625.161 169.934 620.308 169.884 614.855 170.101C614.787 167.973 614.843 165.498 614.841 163.34Z"/><path fill="#008080" d="M390.753 163.404C403.466 163.656 416.849 163.437 429.612 163.423L429.622 169.878C424.395 169.715 419.266 169.844 414.042 169.943C413.823 176.578 413.733 183.217 413.771 189.856L413.902 204.441C411.477 204.118 408.918 204.141 406.464 204.107C406.501 192.738 406.469 181.369 406.367 170.001C401.188 169.826 395.759 169.694 390.6 170.003C390.55 167.585 390.612 165.794 390.753 163.404Z"/><path fill="#008080" fill-opacity="0.93333334" d="M845.412 137.882C845.66 137.909 845.889 137.967 846.129 138.032C850.086 139.105 886.033 175.164 888.834 179.947C887.518 179.396 846.628 139.619 845.412 137.882Z"/><path fill="#008080" fill-opacity="0.92941177" d="M904.309 104.396C911.807 104.082 915.162 104.319 922.492 105.366C918.66 105.865 910.166 105.637 905.72 105.742C895.39 105.986 884.445 106.65 874.176 106.525C870.28 106.56 862.986 106.8 859.517 105.818L859.768 105.293C860.383 105.009 861.409 104.648 862.076 104.672C876.091 105.179 890.315 105.223 904.309 104.396Z"/><path fill="#008080" fill-opacity="0.93725491" d="M883.929 33.0835C883.259 36.5853 854.845 63.1068 850.693 68.8078C849.864 69.9461 847.4 72.3166 846.1 73.0999C845.198 70.4227 879.957 35.8696 883.929 33.0835Z"/><path fill="#008080" fill-opacity="0.96470588" d="M830.371 148.44C833.709 150.331 841.446 174.438 843.55 178.973C844.871 181.822 848.35 191.676 849.05 194.868C846.828 191.905 831.073 152.773 830.371 148.44Z"/><path fill="#008080" fill-opacity="0.94117647" d="M848.162 16.2974C848.761 19.0091 833.156 59.1935 830.776 63.3316C829.61 59.2814 842.192 33.6727 843.5 27.4151C843.805 25.9557 847.276 17.7123 848.162 16.2974Z"/><path fill="#008080" fill-opacity="0.94509804" d="M898.602 67.3975L898.819 67.5958L898.741 68.2704C894.234 71.8956 880.5 76.3756 874.506 79.0156C868.967 81.4547 861.524 84.9981 856.086 86.9921L855.696 86.3679C855.803 86.1361 855.932 85.8582 856.082 85.5343C867.488 80.5553 887.95 72.1684 898.602 67.3975Z"/><path fill="#008080" fill-opacity="0.96862745" d="M813.883 169.986C815.945 172.158 815.387 202.603 814.45 207.59C813.167 203.322 812.586 174.21 813.883 169.986Z"/><path fill="#008080" fill-opacity="0.9137255" d="M855.527 123.193C859.216 123.544 899.706 138.908 903.048 141.009C900.575 140.804 898.862 140.065 896.583 139.184C883.292 134.043 869.742 129.558 856.442 124.472C856.442 124.472 855.61 123.309 855.527 123.193Z"/><path fill="#008080" fill-opacity="0.9254902" d="M823.197 25.0755C823.297 30.6547 821.321 56.1139 819.247 60.5491C818.259 58.1414 821.707 27.675 823.197 25.0755Z"/><path fill="#008080" fill-opacity="0.88235295" d="M841.068 141.782C841.325 141.809 841.577 141.85 841.825 141.921C843.892 142.512 864.487 168.424 866.341 171.723C864.484 171.173 843.205 145.435 841.068 141.782Z"/><path fill="#008080" fill-opacity="0.92941177" d="M849.783 133.118C852.603 133.422 877.084 151.619 879.072 154.184C876.074 153.808 864.668 144.41 861.546 142.35C859.117 140.747 850.717 135.264 849.783 133.118Z"/><path fill="#008080" fill-opacity="0.90196079" d="M861.08 40.1576L861.463 40.7263C860.309 43.9592 844.828 64.6795 841.888 68.7952C841.595 68.5699 841.421 68.1888 841.224 67.8524C841.613 66.2689 858.792 43.2965 861.08 40.1576Z"/><path fill="#008080" fill-opacity="0.95686275" d="M882.144 94.1615C883.409 93.7845 883.659 93.7934 884.955 94.0534L885.12 94.6007C883.416 95.5734 865.202 98.4955 862.26 99.0231C860.395 99.2057 860.877 99.4107 859.339 98.6232C860.913 97.2088 878.658 94.7156 882.144 94.1615Z"/><path fill="#008080" fill-opacity="0.86666667" d="M818.334 151.429C819.614 152.598 819.884 153.536 820.03 155.228C820.874 164.941 822.006 174.639 823.303 184.296L822.603 183.733C821.764 181.967 817.995 153.421 818.334 151.429Z"/><path fill="#008080" fill-opacity="0.90980393" d="M872.574 55.6405L872.949 55.9192C872.669 57.6656 853.025 73.673 849.907 76.5059L849.535 76.0348C849.823 74.0382 869.524 58.1102 872.574 55.6405Z"/><path fill="#008080" fill-opacity="0.92941177" d="M859.356 111.09C863.01 111.2 884.943 113.839 887.537 114.773C881.151 115.528 868.376 113.831 861.696 112.743C860.147 112.491 859.959 112.151 859.356 111.09Z"/><path fill="#008080" fill-opacity="0.9254902" d="M846.514 43.4655C847.418 45.4544 837.811 62.9843 835.964 65.5434C834.95 62.9323 844.506 46.4138 846.514 43.4655Z"/><path fill="#008080" fill-opacity="0.94901961" d="M858.226 117.935C864.644 118.217 872.611 120.637 878.933 122.395L879.251 123.205C876.137 123.093 860.519 120.035 858.221 118.701L858.226 117.935Z"/><path fill="#008080" fill-opacity="0.97254902" d="M829.85 41.0062L830.345 41.4874C830.654 43.4415 826.707 59.2731 825.462 61.3794C823.91 58.6992 825.544 55.0437 826.363 52.133C827.379 48.5272 828.222 44.3365 829.85 41.0062Z"/><path fill="#008080" fill-opacity="0.88627452" d="M853.718 127.948C858.839 130.497 868.836 135.231 873.978 138.704C874.195 139.264 874.381 139.742 874.535 140.139C868.201 136.809 861.128 133.311 854.794 129.871C853.777 129.318 853.868 128.887 853.718 127.948Z"/><path fill="#008080" fill-opacity="0.97254902" d="M876.437 84.9765L876.946 85.1268C875.412 87.1395 861.385 91.1924 858.306 91.9186L857.818 91.5962L857.922 90.8999C860.259 89.2202 873.028 85.9206 876.437 84.9765Z"/><path fill="#008080" fill-opacity="0.94509804" d="M870.195 69.7097L870.813 70.0151C870.03 71.337 856.425 79.8529 853.904 81.5668C853.31 81.2495 853.51 81.4457 853.239 80.5871C854.615 78.3003 866.839 71.6839 870.195 69.7097Z"/><path fill="#008080" fill-opacity="0.96862745" d="M824.477 149.563L825.534 150.338C827.293 153.664 828.559 164.73 828.757 168.788C826.8 167.317 824.723 152.571 824.477 149.563Z"/><path fill="#008080" fill-opacity="0.47450981" d="M813.318 39.0831C812.999 36.9687 813.505 14.1597 814.09 11.8108C815.685 13.6898 814.202 30.7419 814.196 34.568C813.713 36.0593 813.624 38.2064 813.318 39.0831Z"/><path fill="#008080" fill-opacity="0.92156863" d="M835.252 145.135C837.782 146.091 844.047 159.386 845.185 162.473C842.608 161.311 835.921 148.206 835.252 145.135Z"/><path fill="#008080" fill-opacity="0.67843139" d="M813.318 39.0831C813.624 38.2064 813.713 36.0593 814.196 34.568C814.233 38.7945 814.219 43.0212 814.155 47.2474C813.617 49.1535 813.44 49.8956 813.264 51.8639C813.027 48.5954 813.281 42.5524 813.318 39.0831Z"/><path fill="#008080" fill-opacity="0.89411765" d="M813.264 51.8639C813.44 49.8956 813.617 49.1535 814.155 47.2474C814.38 50.9145 814.791 54.8131 813.572 58.3323C812.766 57.5189 813.174 53.2144 813.264 51.8639Z"/><path fill="#008080" fill-opacity="0.627451" d="M813.276 151.47C814.989 154.106 814.098 161.109 813.748 164.229L813.669 164.244C813.056 163.094 813.089 153.223 813.276 151.47Z"/><path fill="#008080" fill-opacity="0.050980393" d="M211.549 108.315C210.306 108.222 209.395 108.241 208.284 107.638C209.192 106.702 210.21 106.645 211.609 106.218L212.458 107.336L211.549 108.315Z"/></svg>
