<?xml version="1.0" encoding="utf-8" ?><svg xmlns="http://www.w3.org/2000/svg" xmlns:xlink="http://www.w3.org/1999/xlink" width="536" height="526" viewBox="0 0 536 526"><path fill="#F2F0ED" d="M60.2788 115.116C66.7361 115.374 73.8811 115.237 80.4053 115.238L114.168 115.239L216.775 115.222L251.058 115.222C274.745 115.229 293.536 115.289 316.838 121.433C341.435 127.917 363.968 140.93 376.992 163.532C378.878 165.833 381.167 171.228 382.424 174.108C382.832 175.854 384.489 180.085 385.137 182.126C386.884 187.639 388.165 193.289 388.964 199.016C392.458 224.108 389.311 251.244 373.37 271.615C358.154 291.058 330.078 302.844 306.257 306.143C310.123 306.974 314.828 307.373 318.792 307.815C352.997 311.625 377.89 325.346 382.395 362.414C382.79 365.562 383.039 368.727 383.139 371.898C383.494 386.284 383.186 402.094 383.189 416.597L383.21 445.608C383.223 447.604 383.725 459.189 383.015 460.096C381.33 460.561 372.732 460.447 370.608 460.446L347.686 460.437C340.364 460.435 329.565 460.83 322.609 460.412C322.55 455.388 322.76 449.954 322.768 444.845L322.78 400.145C322.773 369.951 325.851 339.484 288.172 331.479C265.122 326.581 241.952 327.613 218.536 327.611L145.184 327.609L130.671 327.67C127.819 327.704 123.859 328 121.166 327.566C121.356 330.802 121.225 334.426 121.222 337.711L121.218 355.74L121.217 411.616L121.236 443.225C121.245 447.205 121.496 456.852 120.879 460.208C119.476 460.474 115.866 460.41 114.316 460.422L99.3582 460.419L76.102 460.405C73.1368 460.411 62.3832 460.807 60.4375 459.792C59.913 457.93 60.0843 437.078 60.0866 433.45L60.0988 366.741L60.0992 202.065L60.0474 148.286C60.0418 137.277 59.8716 126.1 60.2788 115.116ZM121.108 167.977C121.581 171.602 121.324 180.196 121.32 184.31L121.304 215.158L121.32 257.202C121.322 262.791 121.659 272.943 121.268 278.065C125.578 277.759 130.429 278.055 134.82 278.086L157.414 278.1L235.244 278.105C252.19 278.105 270.304 278.972 286.777 275.426C301.463 271.78 312.76 264.743 320.957 251.606C329.289 238.251 330.966 219.72 327.196 204.535C324.322 193.279 317.143 183.602 307.204 177.586C293.094 169.216 278.602 168.188 262.669 167.983C253.893 167.871 245.13 167.88 236.354 167.879L163.61 167.876L134.479 167.897C130.627 167.906 124.754 168.179 121.108 167.977Z"/><path fill="#F2F0ED" d="M447.09 47.2953C447.487 47.4395 447.311 47.3732 447.637 47.7973C446.924 52.5885 397.023 105.807 389.921 113.806C386.611 117.499 383.402 121.282 380.297 125.149C376.391 129.946 370.469 137.952 365.701 141.174C365.072 140.46 364.681 140.185 364.605 139.249C365.731 134.729 388.466 111.045 392.794 106.02C402.69 94.5276 413.904 82.109 424.287 71.0088C429.292 65.5862 434.341 60.2052 439.434 54.8662C441.558 52.665 444.791 49.2051 447.09 47.2953Z"/><path fill="#F2F0ED" d="M483.735 123.763C483.979 123.771 484.13 123.86 484.378 123.951C483.846 128.862 455.279 140.693 449.969 142.965C442.497 146.194 435.056 149.492 427.644 152.856C417.06 157.742 406.725 163.251 396.306 168.469C393.869 169.69 391.136 171.212 388.372 171.081C387.605 170.738 387.875 170.999 387.468 170.351C387.921 167.528 404.312 160.822 407.652 159.277L448.761 140.492C456.268 136.992 463.862 133.107 471.381 129.587C475.192 127.803 479.888 125.192 483.735 123.763Z"/><path fill="#F2F0ED" d="M364.929 12.9673L365.704 13.2779C366.065 14.4633 364.519 19.4246 364.079 21.0578C360.953 32.6753 357.339 44.156 353.247 55.4696C349.198 66.8285 344.679 78.1741 340.798 89.6099C337.721 98.6804 335.122 108.026 332.044 117.107C331.597 118.427 330.894 119.153 329.658 119.713C329.459 119.405 328.523 117.964 328.558 117.772C329.929 110.327 334.866 99.136 337.256 92.6101C340.576 83.546 343.786 75.429 346.61 66.843L357.217 34.1623C358.854 29.1306 362.361 16.6012 364.929 12.9673Z"/><path fill="#F2F0ED" d="M368.523 287.463C370.387 287.807 376.623 295.404 378.468 297.415C384.704 304.145 390.849 310.958 396.901 317.853C400.759 322.192 408.242 330.308 411.899 334.072C415.403 337.679 442.811 369.773 442.842 371.172L442.083 371.692C439.536 370.302 434.433 363.782 432.336 361.421L415.629 342.365C408.962 334.693 401.003 325.723 394.401 318.304C390.25 313.639 368.991 292.989 367.315 289.214C367.412 288.398 367.918 288.065 368.523 287.463Z"/><path fill="#F2F0ED" d="M512.747 196.694C513.742 196.544 515.177 196.034 515.534 197.206C514.046 199.263 502.015 199.576 498.983 199.784C466.034 202.035 433.077 208.52 400.102 209.36C398.832 209.464 398.368 209.623 397.623 208.508L397.766 207.808C398.616 206.889 399.597 206.524 400.841 206.499C433.188 205.858 464.809 200.695 496.914 197.5C502.05 196.989 507.478 197.218 512.747 196.694Z"/><path fill="#F2F0ED" d="M482.246 222.547C486.068 222.111 512.792 222.516 516.031 223.686L516.084 223.99C513.054 225.03 498.39 224.752 494.532 224.695C480.907 224.495 467.807 224.777 454.211 225.361C446.865 225.647 439.515 225.799 432.163 225.819C426.338 225.772 420.513 225.772 414.687 225.82C412.012 225.851 399.322 226.302 397.653 224.736L397.718 224.183C399.78 221.695 406.093 223.126 409.293 223.3C415.153 223.563 421.016 223.753 426.88 223.87C428.88 223.901 430.936 223.844 432.931 223.911C446.495 224.366 459.908 222.521 473.462 222.829C476.193 222.891 479.578 222.902 482.246 222.547Z"/><path fill="#F2F0ED" d="M308.589 33.8902L308.922 34.1728C309.676 36.093 310.242 47.0936 310.068 49.5637C308.873 66.5613 307.352 83.5413 306.484 100.56C306.283 104.506 305.888 108.518 305.276 112.4C305.162 113.12 304.125 113.529 303.584 113.835C301.353 112.544 301.96 108.521 302.155 106.223C302.539 101.685 303.151 97.1096 303.646 92.5747C304.544 84.2755 305.33 75.9647 306.004 67.6445C306.2 65.1301 306.145 62.4784 306.423 59.9975C307.376 51.5222 306.943 42.2097 308.589 33.8902Z"/><path fill="#F2F0ED" d="M397.131 65.3157C397.677 65.4301 397.431 65.3079 397.813 65.8109C397.7 67.5156 394.339 72.6255 393.272 74.4429C381.816 93.9541 367.772 111.789 356.122 131.181C355.846 131.641 355.402 131.853 354.945 132.085C353.38 130.9 353.705 129.829 354.515 128.262C357.034 123.387 360.638 119.14 363.715 114.608C368.028 108.254 372.28 101.852 376.539 95.4591L389.286 76.3905C391.264 73.4291 394.815 67.4161 397.131 65.3157Z"/><path fill="#F2F0ED" d="M388.744 261.372C390.679 261.823 394.876 264.06 396.887 264.992L414.177 272.9C432.723 281.252 451.711 289.093 470.076 297.872C471.318 298.466 472.283 299.114 473.161 300.201L473.036 300.555L472.341 300.475C469.962 299.99 458.58 294.762 455.611 293.461C437.127 285.355 418.713 277.049 400.241 268.904C396.451 267.233 391.658 265.995 387.911 264.061C387.301 263.746 387.266 263.305 387.195 262.781C387.631 261.881 387.869 261.843 388.744 261.372Z"/><path fill="#F2F0ED" d="M425.686 97.5647L426.236 97.728L426.435 98.1597C426.387 98.2765 426.34 98.3933 426.292 98.5101C417.439 110.939 403.807 120.511 392.736 130.526C388.674 134.2 376.578 147.359 373.535 148.433C372.668 147.671 372.325 147.461 372.523 146.275C375.369 142.701 380.464 138.873 383.873 135.755C393.994 126.495 404.021 117.135 414.061 107.788C416.888 105.157 422.567 99.6231 425.686 97.5647Z"/><path fill="#F2F0ED" d="M455.128 184.594C456.096 184.456 456.413 184.426 457.166 184.831L457.123 185.239C453.226 188.537 408.092 196.65 398.936 199.153C397.997 199.049 397.694 198.979 397.066 198.33C396.699 197.277 396.705 197.786 397.005 196.748C397.926 195.76 399.379 195.128 400.692 194.904C412.002 192.972 423.296 190.991 434.579 188.891C441.384 187.624 448.278 185.41 455.128 184.594Z"/><path fill="#F2F0ED" d="M363.567 74.9822C364.173 75.258 363.972 75.1172 364.407 75.6249C364.524 79.4753 349.001 111.077 346.912 116.764C346.319 118.381 343.708 123.842 341.683 124.597C340.151 123.175 340.449 121.903 341.154 120.045C344.268 112.343 348.689 104.874 352.424 97.4482C354.759 92.8082 360.563 77.7367 363.567 74.9822Z"/><path fill="#F2F0ED" d="M377.393 279.196C377.988 279.536 381.104 281.93 381.437 282.271C386.412 287.369 427.391 319.961 427.587 322.499L427.283 322.675L426.562 322.433C424.38 321.592 421.194 318.694 419.197 317.169C411.317 311.149 404.261 304.537 396.735 298.113C392.653 294.629 387.849 291.455 383.584 287.998C381.763 286.522 377.505 283.41 375.786 281.483C375.753 281.218 375.719 280.952 375.686 280.686C376.057 279.85 376.591 279.668 377.393 279.196Z"/><path fill="#F2F0ED" d="M421.502 130.569L421.91 130.622L422.033 130.987C420.182 134.933 405.236 144.079 400.89 146.996C397.046 149.574 385.193 158.924 381.506 159.801C380.798 158.942 380.869 159.259 380.685 158.274C382.133 154.436 400.452 143.91 404.818 141.044C409.597 137.906 416.399 133.115 421.502 130.569Z"/><path fill="#F2F0ED" d="M325.99 70.4898C326.744 70.6563 326.413 70.4879 326.99 71.0589C327.641 79.3188 322.507 91.5502 321.815 100.186C321.472 104.457 320.637 110.425 319.224 114.401C318.929 115.23 317.8 115.58 317.007 115.769C315.001 113.278 315.912 111.592 316.414 108.704C317.596 103.22 319.049 97.1466 320.529 91.7591C321.846 86.9685 323.353 74.1894 325.99 70.4898Z"/><path fill="#F2F0ED" d="M435.054 164.892C435.664 164.909 435.556 164.924 436.16 165.098L436.428 165.622L436.072 166.207C433.338 167.918 428.482 169.203 425.452 170.646C419.696 173.387 413.742 175.521 407.802 177.777C403.035 179.587 399.073 181.717 393.954 182.842C392.86 182.61 392.803 182.478 392.283 181.729C392.116 178.018 403.617 175.742 406.697 174.659C416.011 171.384 425.632 167.779 435.054 164.892Z"/><path fill="#F2F0ED" d="M364.739 300.55C365.372 300.753 365.703 300.87 366.106 301.466C368.954 305.678 371.78 309.948 374.664 314.133L389.07 334.615L397.265 346.295C398.401 347.928 399.601 349.638 400.699 351.304C401.164 352.008 400.923 352.368 400.732 353.095C399.364 352.863 397.029 348.928 396.024 347.67C389.427 339.404 383.743 330.503 377.656 321.873C373.699 316.263 369.298 310.944 365.572 305.179C364.789 303.963 364.734 301.966 364.739 300.55Z"/><path fill="#F2F0ED" d="M396.544 239.397C398.858 239.313 402.624 240.416 405.016 240.953C418.616 244.007 432.203 246.687 446.009 248.647C446.958 248.782 448.382 249.104 448.946 249.934L448.783 250.575C443.466 250.906 398.317 243.576 396.367 241.387C396.115 240.52 396.281 240.259 396.544 239.397Z"/><path fill="#F2F0ED" d="M393.008 251.733C399.296 251.889 413.587 257.538 420.217 259.496C423.661 260.513 427.67 261.77 431.139 262.897C431.749 263.096 433.206 263.689 433.473 264.317L432.815 264.691C430.174 264.925 427.231 264.001 424.668 263.362C414.282 260.773 404.194 257.271 393.758 254.876C392.831 254.663 392.549 254.371 392.132 253.551C392.253 252.464 392.268 252.746 393.008 251.733Z"/><path fill="#F2F0ED" d="M383.172 270.758C387.453 271.232 400.068 280.024 404.325 282.649C407.634 284.69 418.902 291.102 420.953 293.725C421.126 294.671 421.166 294.208 420.73 295.149C413.326 291.592 410.542 288.93 403.93 285.044C400.771 283.161 397.592 281.312 394.393 279.499C391.239 277.736 385.45 274.649 382.809 272.365C382.626 271.49 382.689 271.759 383.172 270.758Z"/><path fill="#F2F0ED" d="M328.511 56.5227C332.433 57.348 332.521 60.0624 328.916 61.8216C324.989 61.8682 325.018 57.8745 328.511 56.5227Z"/><path fill="#F2F0ED" d="M455.458 156.486C456.967 156.54 458.424 157.377 458.22 159.013C458.056 160.333 457.259 160.776 456.339 161.593C453.263 161.736 451.83 158.238 455.458 156.486Z"/><path fill="#F2F0ED" d="M368.38 63.8095C371.918 63.8904 372.824 67.0893 369.094 68.5036L368.247 68.5865C365.4 67.4815 366.042 65.1608 368.38 63.8095Z"/><path fill="#F2F0ED" d="M429.051 122.925C430.267 122.765 431.396 123.588 431.616 124.795C431.836 126.002 431.071 127.169 429.876 127.449C429.049 127.643 428.182 127.366 427.621 126.727C427.06 126.088 426.896 125.193 427.196 124.397C427.495 123.602 428.208 123.036 429.051 122.925Z"/><path fill="#F2F0ED" d="M330.993 44.0964C334.008 44.1814 333.884 47.5127 331.511 49.159C328.484 47.9296 328.85 46.0231 330.993 44.0964Z"/><path fill="#F2F0ED" d="M441.253 265.551C444.145 265.434 445.53 267.197 443.564 269.765C442.206 270.186 441.808 270.25 440.811 269.241C440.263 267.646 440.518 267.073 441.253 265.551Z"/><path fill="#F2F0ED" d="M452.388 269.7C453.917 269.924 454.941 270.808 455.306 272.265C455.186 273.188 454.7 273.521 454.042 274.205C451.552 274.417 450.261 271.854 452.388 269.7Z"/><path fill="#F2F0ED" fill-opacity="0.98823529" d="M445.308 160.136C446.279 160.006 447.189 160.642 447.4 161.599C447.611 162.556 447.053 163.516 446.117 163.806C445.438 164.017 444.697 163.828 444.202 163.316C443.708 162.805 443.543 162.058 443.777 161.386C444.01 160.714 444.602 160.231 445.308 160.136Z"/><path fill="#F2F0ED" d="M287.084 0L288.715 0C289.561 4.24822 288.881 10.0929 289.323 14.5495C290.771 29.1521 290.028 43.9349 290.351 58.5913C290.493 65.0563 289.852 71.9148 290.295 78.342C290.874 86.7482 292.13 95.1785 292.125 103.63C292.122 105.978 293.572 113.111 290.274 113.614C286.966 111.602 288.141 94.7207 288.201 90.6958C288.247 84.047 288.174 77.398 287.983 70.7517C287.818 64.0981 287.306 57.5564 287.17 50.8966C286.939 38.1671 286.997 25.4339 287.344 12.7071C287.42 8.50632 286.855 4.10467 287.084 0Z"/></svg>